<svg width="100" height="100" viewBox="0 0 100 100" fill="none" xmlns="http://www.w3.org/2000/svg">
<rect width="100" height="100" rx="50" fill="#F9F8F6"/>
<path d="M15.3521 59.2642H6.29993V47.6161H15.2023V50.0289H8.87913V52.1921H14.7863V54.5217H8.87913V56.8514H15.3521V59.2642ZM25.9753 59.2642H17.1062V47.6161H19.6854V56.8514H25.9753V59.2642ZM36.2822 59.2642H27.23V47.6161H36.1324V50.0289H29.8092V52.1921H35.7164V54.5217H29.8092V56.8514H36.2822V59.2642ZM40.6155 59.2642H38.0363V47.6161H40.4324L44.1598 53.1905L47.7041 47.6161H50.0337V59.2642H47.4545V52.2753L44.426 56.9179H43.7438L40.6155 52.2254V59.2642ZM61.2422 59.2642H52.19V47.6161H61.0925V50.0289H54.7693V52.1921H60.6765V54.5217H54.7693V56.8514H61.2422V59.2642ZM73.1467 47.6161V59.2642H71.1499L65.509 52.3585V59.2642H62.9963V47.6161H64.9765L70.6341 54.5384V47.6161H73.1467ZM77.9596 50.0289H74.2323V47.6161H84.2828V50.0289H80.5388V59.2642H77.9596V50.0289ZM91.4134 56.036C91.4134 55.6699 91.1582 55.3482 90.6479 55.0709C90.415 54.9599 89.8436 54.7713 88.934 54.5051C88.0354 54.25 87.3865 54.0281 86.9871 53.8395C85.6115 53.2072 84.9237 52.2254 84.9237 50.8942C84.9237 50.1731 85.1733 49.5186 85.6725 48.9307C86.1717 48.3317 86.7819 47.9101 87.5029 47.666C88.102 47.4553 88.7454 47.3499 89.4332 47.3499C90.3539 47.3499 91.2137 47.5329 92.0124 47.899C92.8111 48.2651 93.4712 48.7976 93.9926 49.4965L92.262 51.1605C91.4411 50.2286 90.4649 49.7627 89.3334 49.7627C88.1686 49.7627 87.5861 50.1288 87.5861 50.8609C87.5861 51.2714 87.9023 51.5709 88.5346 51.7595C88.8563 51.8815 89.3888 52.0424 90.1321 52.2421C90.5869 52.3641 90.9752 52.4806 91.2969 52.5915C91.6186 52.7024 91.968 52.8633 92.3452 53.0741C92.7224 53.2737 93.0274 53.4901 93.2604 53.723C93.4934 53.956 93.6875 54.2555 93.8428 54.6216C93.9981 54.9877 94.0758 55.3926 94.0758 55.8363C94.0758 56.9678 93.632 57.8664 92.7446 58.532C91.8571 59.1976 90.831 59.5304 89.6662 59.5304C88.5346 59.5304 87.4752 59.2919 86.4879 58.8149C85.5006 58.3268 84.7629 57.6168 84.2748 56.685L86.1551 55.1208C86.5212 55.7309 87.0093 56.219 87.6194 56.5851C88.2407 56.9401 88.9007 57.1176 89.5996 57.1176C90.0544 57.1176 90.4704 57.0399 90.8476 56.8846C91.2248 56.7182 91.4134 56.4354 91.4134 56.036Z" fill="#262420"/>
<path d="M17.9664 45.4834H16.1418L19.6428 37.5006H20.9542L24.4552 45.4834H22.6078L21.9578 44.0009H18.6164L17.9664 45.4834ZM21.3078 42.507L20.2814 40.1235L19.2322 42.507H21.3078ZM31.2258 45.4834H25.1475V37.5006H26.9151V43.8298H31.2258V45.4834ZM38.2894 45.4834H32.0857V37.5006H38.1868V39.1542H33.8533V40.6367H37.9017V42.2333H33.8533V43.8298H38.2894V45.4834ZM44.5777 37.5006H46.7217L43.8365 41.435L46.8129 45.4834H44.6575L42.7873 42.8719L40.9056 45.4834H38.7503L41.7381 41.435L38.8757 37.5006H41.0083L42.7987 39.9753L44.5777 37.5006ZM48.4029 45.4834H46.5783L50.0793 37.5006H51.3908L54.8918 45.4834H53.0443L52.3943 44.0009H49.053L48.4029 45.4834ZM51.7443 42.507L50.7179 40.1235L49.6688 42.507H51.7443ZM62.5405 37.5006V45.4834H61.172L57.306 40.7508V45.4834H55.584V37.5006H56.9411L60.8185 42.2447V37.5006H62.5405ZM66.3863 45.4834H64.0256V37.5006H66.5573C67.9562 37.5006 69.07 37.8199 69.8987 38.4586C70.735 39.0896 71.1531 40.0665 71.1531 41.3894C71.1531 41.9596 71.0695 42.4766 70.9022 42.9403C70.735 43.3965 70.5069 43.7804 70.218 44.0921C69.9291 44.4038 69.5794 44.6661 69.1688 44.879C68.7659 45.0919 68.3325 45.2477 67.8688 45.3466C67.405 45.4378 66.9108 45.4834 66.3863 45.4834ZM66.5345 39.1542H65.7933V43.8298H66.5345C68.3972 43.8298 69.3285 43.0163 69.3285 41.3894C69.3285 39.8993 68.3972 39.1542 66.5345 39.1542ZM74.001 42.7579V45.4834H72.2334V37.5006H75.4607C76.4414 37.5006 77.2245 37.7059 77.8099 38.1164C78.3953 38.527 78.688 39.1884 78.688 40.1007C78.688 40.6025 78.5436 41.0777 78.2547 41.5262C77.9658 41.9672 77.5894 42.2713 77.1257 42.4385L79.3494 45.4834H77.2169L75.2668 42.7579H74.001ZM75.4265 39.1542H74.001V41.1043H75.4949C75.875 41.1043 76.1943 41.0245 76.4528 40.8648C76.7189 40.7051 76.852 40.4505 76.852 40.1007C76.852 39.7282 76.7189 39.4773 76.4528 39.3481C76.1943 39.2188 75.8522 39.1542 75.4265 39.1542ZM80.9443 45.4834H79.1197L82.6207 37.5006H83.9321L87.4332 45.4834H85.5857L84.9357 44.0009H81.5943L80.9443 45.4834ZM84.2857 42.507L83.2593 40.1235L82.2101 42.507H84.2857Z" fill="#CFCFCF"/>
<path d="M21.2903 45.8066H19.5709V38.0413H25.4503V39.6498H21.2903V41.3471H25.173V42.9557H21.2903V45.8066ZM32.4848 45.8066H26.45V38.0413H32.385V39.6498H28.1695V41.092H32.1076V42.645H28.1695V44.1981H32.4848V45.8066ZM35.9505 45.8066H33.6542V38.0413H36.1169C37.4777 38.0413 38.5612 38.3519 39.3673 38.9731C40.1808 39.587 40.5875 40.5373 40.5875 41.8241C40.5875 42.3788 40.5062 42.8817 40.3435 43.3328C40.1808 43.7766 39.9589 44.15 39.6779 44.4533C39.3969 44.7565 39.0567 45.0116 38.6573 45.2187C38.2653 45.4258 37.8438 45.5774 37.3927 45.6735C36.9415 45.7623 36.4608 45.8066 35.9505 45.8066ZM36.0947 39.6498H35.3737V44.1981H36.0947C37.9067 44.1981 38.8126 43.4068 38.8126 41.8241C38.8126 40.3746 37.9067 39.6498 36.0947 39.6498ZM41.2501 41.924C41.2501 40.7998 41.6384 39.8495 42.4149 39.073C43.1988 38.2964 44.1455 37.9082 45.2548 37.9082C46.0387 37.9082 46.7635 38.119 47.4291 38.5405C48.1021 38.962 48.5902 39.5278 48.8934 40.2378C49.1301 40.8146 49.2484 41.3767 49.2484 41.924C49.2484 43.0407 48.8601 43.991 48.0836 44.775C47.3071 45.5515 46.3641 45.9398 45.2548 45.9398C44.1307 45.9398 43.1804 45.5515 42.4038 44.775C41.6347 43.991 41.2501 43.0407 41.2501 41.924ZM43.6574 40.26C43.2432 40.7185 43.0361 41.2732 43.0361 41.924C43.0361 42.5748 43.2469 43.1294 43.6685 43.588C44.09 44.0465 44.6188 44.2758 45.2548 44.2758C45.9204 44.2758 46.4529 44.0502 46.8523 43.5991C47.259 43.1479 47.4624 42.5896 47.4624 41.924C47.4624 41.2806 47.2516 40.7296 46.8301 40.2711C46.4085 39.8051 45.8834 39.5722 45.2548 39.5722C44.604 39.5722 44.0715 39.8014 43.6574 40.26ZM52.0245 43.1553V45.8066H50.3051V38.0413H53.4445C54.3985 38.0413 55.1602 38.241 55.7297 38.6403C56.2992 39.0397 56.5839 39.6831 56.5839 40.5706C56.5839 41.0587 56.4434 41.5209 56.1623 41.9573C55.8813 42.3862 55.5152 42.682 55.0641 42.8447L57.2273 45.8066H55.1528L53.2559 43.1553H52.0245ZM53.4112 39.6498H52.0245V41.5468H53.4778C53.8475 41.5468 54.1581 41.4691 54.4096 41.3138C54.6684 41.1585 54.7979 40.9108 54.7979 40.5706C54.7979 40.2082 54.6684 39.9641 54.4096 39.8384C54.1581 39.7127 53.8253 39.6498 53.4112 39.6498ZM57.4026 41.924C57.4026 40.7998 57.7909 39.8495 58.5674 39.073C59.3514 38.2964 60.298 37.9082 61.4073 37.9082C62.1913 37.9082 62.916 38.119 63.5816 38.5405C64.2546 38.962 64.7427 39.5278 65.0459 40.2378C65.2826 40.8146 65.4009 41.3767 65.4009 41.924C65.4009 43.0407 65.0127 43.991 64.2361 44.775C63.4596 45.5515 62.5167 45.9398 61.4073 45.9398C60.2832 45.9398 59.3329 45.5515 58.5563 44.775C57.7872 43.991 57.4026 43.0407 57.4026 41.924ZM59.8099 40.26C59.3957 40.7185 59.1887 41.2732 59.1887 41.924C59.1887 42.5748 59.3994 43.1294 59.821 43.588C60.2425 44.0465 60.7713 44.2758 61.4073 44.2758C62.0729 44.2758 62.6054 44.0502 63.0048 43.5991C63.4115 43.1479 63.6149 42.5896 63.6149 41.924C63.6149 41.2806 63.4041 40.7296 62.9826 40.2711C62.561 39.8051 62.0359 39.5722 61.4073 39.5722C60.7565 39.5722 60.224 39.8014 59.8099 40.26ZM71.7138 38.0413H73.5664L70.0942 45.8066H68.8961L65.2464 38.0413H67.1434L69.5062 43.1886L71.7138 38.0413ZM74.2162 45.8066H72.4413L75.847 38.0413H77.1227L80.5284 45.8066H78.7312L78.0989 44.3645H74.8486L74.2162 45.8066ZM77.4666 42.9113L76.4682 40.5928L75.4476 42.9113H77.4666Z" fill="#262420"/>
</svg>
