<svg width="100" height="100" viewBox="0 0 100 100" fill="none" xmlns="http://www.w3.org/2000/svg">
<rect x="0.5" y="0.5" width="99" height="99" rx="49.5" fill="#F9F8F6"/>
<path d="M15.352 59.2642H6.29986V47.6161H15.2023V50.0289H8.87907V52.1921H14.7863V54.5217H8.87907V56.8514H15.352V59.2642ZM25.9753 59.2642H17.1061V47.6161H19.6853V56.8514H25.9753V59.2642ZM36.2821 59.2642H27.2299V47.6161H36.1323V50.0289H29.8091V52.1921H35.7163V54.5217H29.8091V56.8514H36.2821V59.2642ZM40.6154 59.2642H38.0362V47.6161H40.4324L44.1597 53.1905L47.7041 47.6161H50.0337V59.2642H47.4545V52.2753L44.426 56.9179H43.7437L40.6154 52.2254V59.2642ZM61.2422 59.2642H52.19V47.6161H61.0924V50.0289H54.7692V52.1921H60.6764V54.5217H54.7692V56.8514H61.2422V59.2642ZM73.1467 47.6161V59.2642H71.1499L65.5089 52.3585V59.2642H62.9963V47.6161H64.9764L70.634 54.5384V47.6161H73.1467ZM77.9596 50.0289H74.2322V47.6161H84.2828V50.0289H80.5388V59.2642H77.9596V50.0289ZM91.4133 56.036C91.4133 55.6699 91.1582 55.3482 90.6479 55.0709C90.4149 54.9599 89.8436 54.7713 88.9339 54.5051C88.0354 54.25 87.3864 54.0281 86.987 53.8395C85.6115 53.2072 84.9237 52.2254 84.9237 50.8942C84.9237 50.1731 85.1733 49.5186 85.6725 48.9307C86.1717 48.3317 86.7818 47.9101 87.5029 47.666C88.1019 47.4553 88.7453 47.3499 89.4331 47.3499C90.3539 47.3499 91.2136 47.5329 92.0123 47.899C92.8111 48.2651 93.4711 48.7976 93.9925 49.4965L92.2619 51.1605C91.441 50.2286 90.4648 49.7627 89.3333 49.7627C88.1685 49.7627 87.5861 50.1288 87.5861 50.8609C87.5861 51.2714 87.9022 51.5709 88.5346 51.7595C88.8563 51.8815 89.3888 52.0424 90.132 52.2421C90.5868 52.3641 90.9751 52.4806 91.2968 52.5915C91.6185 52.7024 91.968 52.8633 92.3451 53.0741C92.7223 53.2737 93.0274 53.4901 93.2603 53.723C93.4933 53.956 93.6874 54.2555 93.8427 54.6216C93.9981 54.9877 94.0757 55.3926 94.0757 55.8363C94.0757 56.9678 93.632 57.8664 92.7445 58.532C91.857 59.1976 90.8309 59.5304 89.6661 59.5304C88.5346 59.5304 87.4752 59.2919 86.4878 58.8149C85.5005 58.3268 84.7628 57.6168 84.2747 56.685L86.155 55.1208C86.5211 55.7309 87.0092 56.219 87.6194 56.5851C88.2406 56.9401 88.9007 57.1176 89.5995 57.1176C90.0544 57.1176 90.4704 57.0399 90.8475 56.8846C91.2247 56.7182 91.4133 56.4354 91.4133 56.036Z" fill="#161616"/>
<path d="M17.9665 45.4834H16.1419L19.6429 37.5006H20.9544L24.4554 45.4834H22.6079L21.9579 44.0009H18.6165L17.9665 45.4834ZM21.3079 42.507L20.2815 40.1235L19.2324 42.507H21.3079ZM31.2259 45.4834H25.1476V37.5006H26.9152V43.8298H31.2259V45.4834ZM38.2895 45.4834H32.0858V37.5006H38.1869V39.1542H33.8534V40.6367H37.9018V42.2333H33.8534V43.8298H38.2895V45.4834ZM44.5778 37.5006H46.7218L43.8366 41.435L46.813 45.4834H44.6577L42.7874 42.8719L40.9058 45.4834H38.7504L41.7382 41.435L38.8759 37.5006H41.0084L42.7988 39.9753L44.5778 37.5006ZM48.4031 45.4834H46.5784L50.0794 37.5006H51.3909L54.8919 45.4834H53.0445L52.3944 44.0009H49.0531L48.4031 45.4834ZM51.7444 42.507L50.7181 40.1235L49.6689 42.507H51.7444ZM62.5406 37.5006V45.4834H61.1721L57.3062 40.7508V45.4834H55.5842V37.5006H56.9412L60.8186 42.2447V37.5006H62.5406ZM66.3864 45.4834H64.0258V37.5006H66.5574C67.9563 37.5006 69.0701 37.8199 69.8988 38.4586C70.7351 39.0896 71.1532 40.0665 71.1532 41.3894C71.1532 41.9596 71.0696 42.4766 70.9024 42.9403C70.7351 43.3965 70.507 43.7804 70.2181 44.0921C69.9292 44.4038 69.5795 44.6661 69.169 44.879C68.766 45.0919 68.3327 45.2477 67.8689 45.3466C67.4051 45.4378 66.911 45.4834 66.3864 45.4834ZM66.5346 39.1542H65.7934V43.8298H66.5346C68.3973 43.8298 69.3286 43.0163 69.3286 41.3894C69.3286 39.8993 68.3973 39.1542 66.5346 39.1542ZM74.0011 42.7579V45.4834H72.2335V37.5006H75.4608C76.4416 37.5006 77.2246 37.7059 77.81 38.1164C78.3954 38.527 78.6881 39.1884 78.6881 40.1007C78.6881 40.6025 78.5437 41.0777 78.2548 41.5262C77.9659 41.9672 77.5896 42.2713 77.1258 42.4385L79.3496 45.4834H77.217L75.2669 42.7579H74.0011ZM75.4266 39.1542H74.0011V41.1043H75.495C75.8752 41.1043 76.1945 41.0245 76.453 40.8648C76.7191 40.7051 76.8521 40.4505 76.8521 40.1007C76.8521 39.7282 76.7191 39.4773 76.453 39.3481C76.1945 39.2188 75.8524 39.1542 75.4266 39.1542ZM80.9444 45.4834H79.1198L82.6208 37.5006H83.9323L87.4333 45.4834H85.5858L84.9358 44.0009H81.5945L80.9444 45.4834ZM84.2858 42.507L83.2594 40.1235L82.2103 42.507H84.2858Z" fill="#CFCFCF"/>
<path d="M21.2901 45.8066H19.5707V38.0413H25.4501V39.6498H21.2901V41.3471H25.1728V42.9557H21.2901V45.8066ZM32.4846 45.8066H26.4499V38.0413H32.3848V39.6498H28.1693V41.092H32.1075V42.645H28.1693V44.1981H32.4846V45.8066ZM35.9503 45.8066H33.654V38.0413H36.1167C37.4775 38.0413 38.561 38.3519 39.3671 38.9731C40.1806 39.587 40.5874 40.5373 40.5874 41.8241C40.5874 42.3788 40.506 42.8817 40.3433 43.3328C40.1806 43.7766 39.9587 44.15 39.6777 44.4533C39.3967 44.7565 39.0565 45.0116 38.6571 45.2187C38.2652 45.4258 37.8436 45.5774 37.3925 45.6735C36.9414 45.7623 36.4606 45.8066 35.9503 45.8066ZM36.0946 39.6498H35.3735V44.1981H36.0946C37.9065 44.1981 38.8124 43.4068 38.8124 41.8241C38.8124 40.3746 37.9065 39.6498 36.0946 39.6498ZM41.2499 41.924C41.2499 40.7998 41.6382 39.8495 42.4147 39.073C43.1987 38.2964 44.1453 37.9082 45.2546 37.9082C46.0386 37.9082 46.7633 38.119 47.4289 38.5405C48.1019 38.962 48.59 39.5278 48.8932 40.2378C49.1299 40.8146 49.2482 41.3767 49.2482 41.924C49.2482 43.0407 48.86 43.991 48.0834 44.775C47.3069 45.5515 46.364 45.9398 45.2546 45.9398C44.1305 45.9398 43.1802 45.5515 42.4036 44.775C41.6345 43.991 41.2499 43.0407 41.2499 41.924ZM43.6572 40.26C43.243 40.7185 43.036 41.2732 43.036 41.924C43.036 42.5748 43.2467 43.1294 43.6683 43.588C44.0898 44.0465 44.6186 44.2758 45.2546 44.2758C45.9202 44.2758 46.4527 44.0502 46.8521 43.5991C47.2588 43.1479 47.4622 42.5896 47.4622 41.924C47.4622 41.2806 47.2514 40.7296 46.8299 40.2711C46.4083 39.8051 45.8832 39.5722 45.2546 39.5722C44.6038 39.5722 44.0713 39.8014 43.6572 40.26ZM52.0243 43.1553V45.8066H50.3049V38.0413H53.4443C54.3983 38.0413 55.1601 38.241 55.7295 38.6403C56.299 39.0397 56.5837 39.6831 56.5837 40.5706C56.5837 41.0587 56.4432 41.5209 56.1622 41.9573C55.8811 42.3862 55.515 42.682 55.0639 42.8447L57.2271 45.8066H55.1527L53.2557 43.1553H52.0243ZM53.411 39.6498H52.0243V41.5468H53.4776C53.8473 41.5468 54.158 41.4691 54.4094 41.3138C54.6683 41.1585 54.7977 40.9108 54.7977 40.5706C54.7977 40.2082 54.6683 39.9641 54.4094 39.8384C54.158 39.7127 53.8252 39.6498 53.411 39.6498ZM57.4024 41.924C57.4024 40.7998 57.7907 39.8495 58.5672 39.073C59.3512 38.2964 60.2978 37.9082 61.4071 37.9082C62.1911 37.9082 62.9158 38.119 63.5814 38.5405C64.2544 38.962 64.7425 39.5278 65.0458 40.2378C65.2824 40.8146 65.4007 41.3767 65.4007 41.924C65.4007 43.0407 65.0125 43.991 64.2359 44.775C63.4594 45.5515 62.5165 45.9398 61.4071 45.9398C60.283 45.9398 59.3327 45.5515 58.5562 44.775C57.787 43.991 57.4024 43.0407 57.4024 41.924ZM59.8097 40.26C59.3955 40.7185 59.1885 41.2732 59.1885 41.924C59.1885 42.5748 59.3992 43.1294 59.8208 43.588C60.2423 44.0465 60.7711 44.2758 61.4071 44.2758C62.0727 44.2758 62.6052 44.0502 63.0046 43.5991C63.4113 43.1479 63.6147 42.5896 63.6147 41.924C63.6147 41.2806 63.4039 40.7296 62.9824 40.2711C62.5609 39.8051 62.0358 39.5722 61.4071 39.5722C60.7563 39.5722 60.2239 39.8014 59.8097 40.26ZM71.7136 38.0413H73.5662L70.094 45.8066H68.8959L65.2462 38.0413H67.1432L69.5061 43.1886L71.7136 38.0413ZM74.2161 45.8066H72.4411L75.8468 38.0413H77.1225L80.5282 45.8066H78.731L78.0987 44.3645H74.8484L74.2161 45.8066ZM77.4664 42.9113L76.468 40.5928L75.4474 42.9113H77.4664Z" fill="#111111"/>
<rect x="0.5" y="0.5" width="99" height="99" rx="49.5" stroke="#262420"/>
</svg>
